<?xml version="1.0" encoding="UTF-8"?><svg id="Calque_1" xmlns="http://www.w3.org/2000/svg" viewBox="0 0 1078.71 886.66"><defs><style>.cls-1{fill:#febf15;}</style></defs><path class="cls-1" d="M1078.71,372.88v14.52c-7.37,137.48-157.18,228.73-259.87,299.93-41.1,27.76-82.36,55.32-122.45,84.53-47.47,32.49-94.73,66.35-148.22,88.36-103.71,44.72-218.46,30.44-314.85-25.66-44.46-25.26-89.87-50.81-127.84-85.39-34.17-34.07-62.52-74.02-87.94-114.9-30.14-48.16-17.36-103.38,7.7-150.61,21.22-43.28,47.83-83.62,68.75-127.04,24.4-47.17,41.93-97.47,56.59-148.42,16.42-56.35,29.12-121.62,81.03-156.69C279.02,19.12,337.48,7.73,393.69,1.93c84.68-9.18,169.26,14.67,238.14,64.28,46.62,31,100.51,47.98,153.53,64.49,122.01,37.63,286.44,90.89,293.35,242.17Z"/></svg>